HIERARCHY
ROOT Hips
{
  OFFSET -32.5998 29.0326 120.673
  CHANNELS 6 Xposition Yposition Zposition Zrotation Xrotation Yrotation
  JOINT LeftUpLeg
  {
    OFFSET 8.64259 1.95398 -2.38835
    CHANNELS 3 Zrotation Xrotation Yrotation
    JOINT LeftLeg
    {
      OFFSET 43.7702 0 0
      CHANNELS 3 Zrotation Xrotation Yrotation
      JOINT LeftFoot
      {
        OFFSET 40.6238 0 0
        CHANNELS 3 Zrotation Xrotation Yrotation
        JOINT LeftToeBase
        {
          OFFSET 12.7242 0 0
          CHANNELS 3 Zrotation Xrotation Yrotation
          End Site
          {
            OFFSET 0 0 0
          }
        }
      }
    }
  }
  JOINT RightUpLeg
  {
    OFFSET -8.2249 1.95398 -2.59336
    CHANNELS 3 Zrotation Xrotation Yrotation
    JOINT RightLeg
    {
      OFFSET 43.5653 0 0
      CHANNELS 3 Zrotation Xrotation Yrotation
      JOINT RightFoot
      {
        OFFSET 40.6238 0 0
        CHANNELS 3 Zrotation Xrotation Yrotation
        JOINT RightToeBase
        {
          OFFSET 12.7242 0 0
          CHANNELS 3 Zrotation Xrotation Yrotation
          End Site
          {
            OFFSET 0 0 0
          }
        }
      }
    }
  }
  JOINT Spine
  {
    OFFSET 0.165834 0.87714 6.61349
    CHANNELS 3 Zrotation Xrotation Yrotation
    JOINT Spine1
    {
      OFFSET 7.38963 1.71661e-005 0
      CHANNELS 3 Zrotation Xrotation Yrotation
      JOINT Spine2
      {
        OFFSET 11.9445 1.14441e-005 0
        CHANNELS 3 Zrotation Xrotation Yrotation
        JOINT Spine3
        {
          OFFSET 14.7254 4.19617e-005 0
          CHANNELS 3 Zrotation Xrotation Yrotation
          JOINT Spine4
          {
            OFFSET 10.9679 0 0
            CHANNELS 3 Zrotation Xrotation Yrotation
            JOINT RightShoulder
            {
              OFFSET 2.46616 -1.6653 3.69651
              CHANNELS 3 Zrotation Xrotation Yrotation
              JOINT RightArm
              {
                OFFSET 13.0012 0 0
                CHANNELS 3 Zrotation Xrotation Yrotation
                JOINT RightForeArm
                {
                  OFFSET 28.7848 1.62311e-005 0
                  CHANNELS 3 Zrotation Xrotation Yrotation
                  JOINT RightHand
                  {
                    OFFSET 26.5688 1.62095e-005 0
                    CHANNELS 3 Zrotation Xrotation Yrotation
                    End Site
                    {
                      OFFSET 0 0 0
                    }
                  }
                }
              }
            }
            JOINT LeftShoulder
            {
              OFFSET 2.38034 -1.29275 -3.7523
              CHANNELS 3 Zrotation Xrotation Yrotation
              JOINT LeftArm
              {
                OFFSET 16.3182 6.07031e-005 0
                CHANNELS 3 Zrotation Xrotation Yrotation
                JOINT LeftForeArm
                {
                  OFFSET 27.0901 0 0
                  CHANNELS 3 Zrotation Xrotation Yrotation
                  JOINT LeftHand
                  {
                    OFFSET 24.5451 1.51738e-005 0
                    CHANNELS 3 Zrotation Xrotation Yrotation
                    End Site
                    {
                      OFFSET 0 0 0
                    }
                  }
                }
              }
            }
            JOINT Neck
            {
              OFFSET 5.0226 -0.0266342 0
              CHANNELS 3 Zrotation Xrotation Yrotation
              JOINT Head
              {
                OFFSET 6.69364 2.86102e-005 0
                CHANNELS 3 Zrotation Xrotation Yrotation
                End Site
                {
                  OFFSET 0 0 0
                }
              }
            }
          }
        }
      }
    }
  }
}
MOTION
Frames:	18
Frame Time:	0.0416667
-340.205 85.5373 320.024 59.856 64.6399 125.677 179.841 -3.31795 105.528 -60.9258 25.9517 13.7657 30.5194 -12.3112 -13.2068 109.369 17.4378 -30.7185 159.64 35.5099 95.2288 -53.2668 1.76224 19.1388 84.4181 -9.64715 7.00321 21.9039 2.54449 1.90254 -3.30546 7.03677 -91.6658 12.7361 -7.36055 -2.45771 1.08441 -7.46153 -2.12981 -21.5623 -6.28122 -4.56231 -1.54967 -6.2812 -4.56231 115.728 -40.3046 -58.2904 28.4909 -15.7781 28.6545 -25.5915 20.2149 -131.811 -35.378 17.5651 -57.703 -78.377 -3.14915 94.8414 -81.4314 -10.0822 -44.2598 8.30892 1.54629 -69.2565 17.9394 -8.42396 -48.6363 68.2286 -17.5246 -22.6223 -60.38 -10.6236 24.0454 
-332.688 84.4618 313.751 74.2395 45.9737 115.861 -175.531 10.4333 102.693 -87.9575 12.0543 5.87357 53.9345 -4.72073 4.16141 93.4378 19.7414 -15.1419 165.294 29.8405 106.08 -54.9978 0.998065 10.047 90.7454 -13.5429 9.00976 23.9412 -0.324464 8.63949 -1.48052 7.66758 -92.085 11.4626 -3.91897 -3.74743 -0.207383 -4.07997 -3.57139 -22.7236 -2.61306 -4.7506 -2.7109 -2.61306 -4.75061 103.919 -42.9895 -79.1588 28.4834 -3.19205 2.89054 -33.6156 19.6818 -116.388 -20.4381 4.74486 -28.596 -87.0765 -29.4622 77.6275 -32.9587 -39.2084 -20.9888 -18.2962 8.12639 -85.0868 31.8302 -13.4155 -45.1681 54.3609 -0.788291 -16.4131 -40.5764 4.29864 16.6749 
-326.243 83.0615 307.527 78.5122 27.6364 109.572 -165.968 34.4118 95.2854 -107.292 10.3218 3.46045 61.8179 -0.501549 9.17724 71.5625 15.153 -5.27342 174.169 27.4265 105.93 -55.6756 -10.8257 3.34716 90.8529 -18.2018 3.53183 28.6266 -1.3127 5.77386 0.266896 7.93336 -91.9208 10.9821 -0.358508 -3.79468 -0.694377 -0.525043 -3.77527 -23.1855 0.797612 -3.7273 -3.17286 0.797604 -3.72731 91.3056 -30.6005 -104.139 35.5918 23.2335 -23.3158 -30.4008 11.1854 -117.481 -10.4465 -1.37776 4.98526 -83.8816 -39.9762 86.6768 9.35071 -39.9016 16.6573 -13.3957 23.9042 -112.621 48.0019 -18.5759 -43.1069 38.4098 10.7656 1.08511 -19.7777 9.18176 3.62907 
-316.467 83.7352 298.793 80.25 23.5874 103.884 -165.871 48.6737 91.3892 -108.285 11.7812 3.24527 69.1356 5.3253 14.9427 25.1271 2.37174 -8.3228 176.148 14.5443 100.371 -51.3041 -17.3968 -0.0415934 90.2343 -21.7057 -3.86669 32.8528 -3.778 9.9339 1.80467 7.6975 -91.2565 11.5207 3.00249 -2.8133 -0.150131 2.87579 -2.94267 -22.7015 3.70904 -1.78056 -2.68887 3.70905 -1.78056 91.8888 -21.2848 -106.127 47.7573 42.373 -43.9806 -27.2118 4.75599 -125.327 -14.4834 -1.37518 5.99044 -82.9121 -35.7912 87.8142 28.477 -24.6607 31.4889 25.1146 -3.89241 -145.172 45.6272 -9.15904 -23.6642 29.6164 6.33927 4.87776 -13.8492 3.96095 1.17059 
-304.5 87.0951 287.704 82.4376 26.5828 99.5901 -171.67 52.6819 90.1843 -92.4807 -1.91929 2.75264 76.995 8.06018 7.38181 15.5493 -0.915875 -8.63147 173.191 -1.72669 90.9806 -36.5039 -23.3445 -1.29159 73.4263 -10.0021 -4.34635 47.3798 -8.70836 12.3544 2.84761 7.66216 -90.7434 11.6056 5.31666 -2.03165 -0.0564025 5.22211 -2.26418 -22.6782 5.68073 -0.335049 -2.66556 5.68073 -0.335046 96.0302 -8.49609 -101.242 60.6534 48.5659 -48.5665 -26.7623 3.83149 -131.377 -18.2695 -1.63527 5.23828 -82.7977 -28.042 86.9288 26.8278 -10.4089 35.3341 28.8922 -19.831 -152.774 40.1883 -6.78765 -21.458 28.1676 -0.220865 4.6213 -16.1911 -1.90377 -0.89304 
-291.257 90.6824 275.734 82.316 33.2271 96.598 -177.63 51.3784 88.0424 -67.9594 -3.03867 1.90044 76.836 8.74596 6.19708 15.2873 -1.69743 -7.34028 171.54 -15.4403 86.2302 -22.5905 -26.6333 -3.86027 56.5857 2.73931 -0.245901 30.1932 -3.20244 12.1205 3.11147 7.55225 -89.9312 11.8128 6.22011 -0.53324 0.156598 6.1906 -0.807546 -22.4957 6.09176 1.368 -2.48303 6.09174 1.36799 97.1417 -3.29471 -100.162 52.5349 48.4323 -35.9087 -27.6647 8.01639 -132.986 -10.0814 -0.791856 2.54285 -82.5886 -18.9294 85.6576 6.03713 6.02787 36.5158 34.7848 -32.2867 -147.538 34.4245 -7.09985 -25.2684 29.3281 -7.88509 -2.99864 -21.0528 -6.40426 0.0619665 
-277.969 92.9416 264.046 83.0695 33.2046 93.6665 -178.174 44.1423 87.973 -39.3473 4.14131 -0.250674 70.4459 6.64736 3.98538 24.7932 -0.345187 -2.81772 170.641 -21.3467 84.3627 -26.6181 -28.0768 -7.24943 58.7047 1.70856 -2.74406 15.5236 2.12816 10.5676 3.63086 7.44412 -89.0966 11.9626 7.64475 0.977482 0.314108 7.68033 0.638076 -22.3756 6.99588 3.24055 -2.36294 6.99587 3.24054 96.3778 -5.52304 -101.588 38.6327 39.7809 -23.4576 -29.467 13.7384 -133.444 -15.8785 -1.70833 6.7671 -82.6439 -15.9255 84.9226 -11.7522 19.9166 42.2585 44.1926 -42.2955 -135.285 23.8364 -5.26744 -26.4231 25.2839 -12.6315 -10.4331 -20.4021 -8.43261 0.161291 
-265.954 92.8465 253.046 82.848 37.4592 98.068 -179.07 39.0677 90.8593 -21.3405 13.7223 -0.46459 68.8332 6.63452 1.36126 22.5173 -5.16827 5.1386 171.135 -24.0695 89.365 -30.7092 -13.7455 -1.6264 60.2167 1.29438 -0.591531 21.1499 -0.629629 13.025 3.27489 7.17602 -89.5705 12.5507 6.71188 0.094873 0.897086 6.7095 -0.201961 -21.7676 6.37194 2.11594 -1.75495 6.37194 2.11594 95.5194 -9.07381 -102.517 33.3542 12.635 -14.411 -28.7659 18.3554 -126.022 -9.42698 -0.419504 0.104526 -83.003 -24.763 85.9268 -22.8939 26.2913 44.9038 59.8147 -47.177 -116.364 11.4851 -2.188 -21.3114 22.6157 -12.2786 -9.39986 -18.9805 -8.62369 -0.696472 
-254.167 92.5651 239.926 93.3474 37.8501 89.813 -177.516 28.2857 87.4236 -24.2854 7.29429 -0.575148 63.8949 1.81822 1.93852 18.5186 -6.73644 4.46055 164.11 -27.0207 80.4486 -45.3052 -13.0744 -2.45233 64.1881 -2.41028 -3.57788 19.5699 0.848306 10.0715 2.96702 7.86186 -89.6452 11.1602 6.07028 0.113583 -0.496523 6.0694 -0.154706 -23.1373 5.75456 1.93882 -3.12468 5.75457 1.93882 94.2601 -15.6439 -102.979 37.1744 -11.0182 -3.67186 -36.5581 21.7477 -110.686 -7.51322 -0.306952 -0.45325 -84.0515 -36.4981 85.8833 -25.3832 26.8934 37.7623 70.8129 -45.3833 -100.963 5.05152 -0.300962 -7.61327 19.5511 -10.7948 -9.79128 -18.3423 -7.42698 -0.172235 
-243.89 90.9547 230.38 90.3208 40.9683 92.5977 -174.004 32.7027 86.8126 -43.5965 14.4168 -2.59327 67.7405 4.17719 6.56223 17.3188 -1.92381 -5.62741 166.986 -10.3315 84.4395 -68.9018 -4.01936 -1.53942 66.942 -3.60148 -5.25072 14.3007 3.01691 9.44087 1.9399 7.43818 -89.6076 11.9977 4.04197 0.34488 0.332962 4.05324 0.166363 -22.2455 3.75109 1.54527 -2.23282 3.7511 1.54527 93.7028 -22.0806 -101.782 44.7886 -22.6492 7.06655 -45.7172 15.1875 -89.7531 -6.13188 -0.235943 -0.581691 -86.538 -47.7096 83.537 -17.8231 23.1413 20.6205 72.0895 -44.0589 -97.0753 2.3449 0.0317288 -1.28726 17.0529 -8.76084 -13.2365 -16.7457 -5.00274 2.5444 
-234.805 89.3642 220.341 94.5855 43.4935 84.2516 -172.69 21.8413 80.4767 -49.7337 14.4586 -3.20284 80.5318 14.6103 7.3566 18.1221 -5.09558 1.15088 168.392 4.28011 82.6999 -87.7942 -2.40152 -3.54587 72.6995 -7.62472 -7.5273 14.2044 2.8732 9.89596 0.6242 7.86899 -89.0454 11.1188 1.68539 1.73302 -0.551919 1.76 1.65716 -23.0837 1.08677 2.15934 -3.07103 1.08677 2.15934 93.7816 -23.1627 -101.254 51.0219 -18.1973 17.0891 -50.9397 2.53142 -79.1425 -4.3685 -0.0767083 -2.85046 -87.4435 -53.0794 83.0777 -6.89485 16.812 -7.69609 73.4907 -39.7388 -96.0792 1.35117 0.092848 1.15088 16.1755 -4.64353 -11.4477 -15.4696 -1.36019 0.560946 
-225.459 89.1447 210.407 95.3382 43.2114 85.2714 -172.308 8.78634 81.2365 -47.5848 12.7084 -2.73256 88.8078 20.5028 5.15416 22.5504 -4.65533 4.26209 173.544 21.0884 87.2352 -92.0408 -2.12719 -3.92972 76.3362 -10.1439 -7.29306 14.0947 2.10346 12.0405 -0.309124 7.68483 -89.2488 11.5051 -0.263303 1.53019 -0.166799 -0.195704 1.54029 -22.6957 -0.710967 1.38036 -2.683 -0.710954 1.38036 95.2195 -22.6476 -98.1662 51.7367 -13.4305 28.5356 -45.1454 0.123132 -76.2959 -8.57492 -0.142473 -3.69999 -87.7281 -49.4209 82.0323 -1.18908 6.29698 -24.4929 69.2066 -38.4409 -99.7127 5.969 0.0231235 -2.65721 13.039 0.798362 -8.08685 -16.1028 2.84541 -0.0130069 
-215.121 90.7079 199.829 95.2873 42.3195 87.4342 -170.993 -3.60715 86.4091 -39.0296 12.277 -2.74368 85.5363 18.6262 4.98393 27.3156 -0.314922 -0.674819 176.763 31.3867 92.2004 -79.8444 1.61041 -3.2632 77.5585 -10.029 -7.06785 17.7779 1.45508 10.1948 -1.3487 7.55902 -89.7262 11.7673 -2.55377 0.815748 0.0985082 -2.51538 0.927397 -22.4568 -2.68077 0.00999291 -2.44414 -2.6808 0.0099757 96.3666 -19.2064 -96.4325 48.4886 -12.7511 34.6831 -46.8991 0.944229 -76.5483 -4.03694 -0.0271644 -5.10229 -86.5849 -41.7545 82.4339 -0.918987 -6.31972 -26.2582 64.092 -39.1172 -105.971 5.92202 0.393407 2.29648 11.5041 7.67968 -1.35995 -17.2425 7.94695 -0.767768 
-203.833 92.9386 188.419 98.119 39.8583 87.1578 -168.696 -17.3928 91.3147 -27.8978 16.8423 -3.13168 65.2148 3.83433 4.94738 45.7299 6.87879 -1.63913 179.669 32.0688 95.1349 -56.3967 -0.131611 -2.46059 72.3148 -6.30237 -5.43409 15.562 3.12823 7.80638 -2.09099 7.71181 -90.043 11.4647 -4.18032 0.340079 -0.199553 -4.16129 0.524054 -22.7875 -4.08892 -0.934186 -2.77488 -4.08892 -0.93419 96.8182 -15.6532 -96.2321 43.1058 -8.38544 38.066 -44.7511 2.21379 -78.5746 -4.35076 0.0696171 -8.73307 -85.1113 -34.0165 83.5217 -0.615309 -15.6192 -18.8747 58.9304 -39.9866 -112.709 4.98248 0.55511 5.62489 10.7673 13.1959 2.82333 -19.0399 12.1623 1.05675 
-192.507 93.4516 176.902 97.1923 38.9243 89.2151 -170.291 -24.4628 91.5896 -26.2315 15.6932 -0.250427 58.6747 -1.7173 0.382793 35.2801 1.9651 1.91158 -179.169 29.1643 96.9048 -27.6908 -9.02905 -0.577418 63.8891 -2.51434 0.0986279 20.973 1.78354 5.60434 -2.4372 7.54427 -90.4097 11.7878 -5.03922 -0.27997 0.126596 -5.04665 -0.057343 -22.4795 -4.7216 -1.78488 -2.46682 -4.72158 -1.78488 98.437 -16.9858 -91.9015 28.9903 -4.74741 40.8871 -33.9063 5.75621 -83.7634 -9.13792 0.000813542 -5.35725 -84.6691 -27.4066 83.0328 -0.613941 -17.5786 -13.7356 54.881 -38.6973 -115.603 5.95559 0.673256 6.10656 10.0574 15.1291 4.37357 -20.7895 13.4383 3.21372 
-181.542 92.4458 165.812 98.4719 39.9036 86.298 -171.628 -26.6728 89.688 -37.2112 7.00389 1.40104 66.516 3.30055 2.67638 31.309 1.5242 -1.28409 -179.095 27.0081 96.1895 -17.3467 -10.478 -0.20913 63.1599 -2.96277 1.8581 21.6971 1.28665 6.17286 -2.68455 7.40931 -90.229 12.0721 -5.44509 0.13956 0.412604 -5.43366 0.379792 -22.2096 -5.23454 -1.50796 -2.19701 -5.23457 -1.50797 112.012 -20.9358 -59.3118 17.2663 -19.1713 17.8886 -34.0931 7.33076 -81.9867 -11.1318 0.232272 -7.86959 -84.3352 -25.8992 83.3932 -0.143852 -14.0619 -12.6652 50.5433 -35.8562 -116.539 5.78093 0.269378 1.35179 6.32471 14.7675 2.94704 -18.8086 13.227 6.01735 
-170.89 90.8172 155.381 103.691 40.4563 80.8311 -167.776 -22.6741 93.0441 -57.3923 1.35528 1.10165 69.2667 4.78232 5.73887 24.8013 -1.55484 -0.193201 179.374 26.59 95.5991 -30.5926 -16.9031 -0.531158 58.2139 1.97837 0.167174 19.6197 1.89154 6.8504 -2.54574 7.59946 -89.9371 11.6996 -5.03396 0.652822 0.038152 -5.00035 0.874286 -22.5742 -4.99684 -0.894178 -2.56155 -4.99683 -0.894178 113.109 -13.2062 -52.0932 23.6792 -16.6357 9.11363 -43.117 1.89111 -78.4359 -10.4574 0.27109 -8.55847 -85.1694 -31.2711 82.8775 0.792659 -8.3014 -11.4421 76.3844 -42.1462 -99.9131 7.64716 2.63082 25.9505 4.29191 13.6095 2.53948 -17.616 12.3925 5.20485 
-161.158 88.2866 145.976 106.146 41.1825 81.4998 -163.224 -8.61919 100.855 -80.091 -3.3315 2.3045 73.0899 6.90149 7.49646 27.4601 1.21348 -4.25664 177.032 29.2766 99.2782 -54.3432 -18.1512 0.130135 68.4916 -4.8771 -6.03772 11.2021 4.68218 8.30996 -2.04003 7.76842 -90.2932 11.349 -4.19656 -0.170802 -0.315065 -4.20001 0.0143852 -22.9007 -3.95079 -1.42609 -2.88811 -3.95082 -1.42609 97.6647 -14.73 -92.9688 20.5703 16.2013 40.8496 -34.1225 0.265049 -89.418 -12.9272 -0.197029 -3.38889 -86.928 -41.2688 81.7476 1.01875 -2.53941 -8.07667 58.7866 -34.6916 -106.963 5.19517 0.279732 2.02153 2.34441 12.1262 5.34244 -14.0453 10.9612 2.23916 
